<svg width="52" height="52" viewBox="0 0 52 52" fill="none" xmlns="http://www.w3.org/2000/svg">
<path d="M15.1666 19.5C16.6032 19.5 17.9809 18.9294 18.9967 17.9135C20.0126 16.8977 20.5833 15.52 20.5833 14.0834C20.5833 12.6468 20.0126 11.269 18.9967 10.2532C17.9809 9.23739 16.6032 8.66671 15.1666 8.66671C13.73 8.66671 12.3522 9.23739 11.3364 10.2532C10.3206 11.269 9.74992 12.6468 9.74992 14.0834C9.74992 15.52 10.3206 16.8977 11.3364 17.9135C12.3522 18.9294 13.73 19.5 15.1666 19.5ZM15.1666 23.8334C13.8862 23.8334 12.6183 23.5812 11.4354 23.0912C10.2525 22.6012 9.17767 21.883 8.27229 20.9777C7.36692 20.0723 6.64874 18.9975 6.15876 17.8145C5.66878 16.6316 5.41659 15.3638 5.41659 14.0834C5.41659 12.803 5.66878 11.5351 6.15876 10.3522C6.64874 9.16929 7.36692 8.09445 8.27229 7.18908C9.17767 6.28371 10.2525 5.56553 11.4354 5.07555C12.6183 4.58557 13.8862 4.33337 15.1666 4.33337C17.7524 4.33337 20.2324 5.3606 22.0609 7.18908C23.8894 9.01756 24.9166 11.4975 24.9166 14.0834C24.9166 16.6692 23.8894 19.1492 22.0609 20.9777C20.2324 22.8061 17.7524 23.8334 15.1666 23.8334V23.8334ZM37.9166 28.1667C39.0659 28.1667 40.1681 27.7102 40.9807 26.8975C41.7934 26.0848 42.2499 24.9826 42.2499 23.8334C42.2499 22.6841 41.7934 21.5819 40.9807 20.7692C40.1681 19.9566 39.0659 19.5 37.9166 19.5C36.7673 19.5 35.6651 19.9566 34.8525 20.7692C34.0398 21.5819 33.5833 22.6841 33.5833 23.8334C33.5833 24.9826 34.0398 26.0848 34.8525 26.8975C35.6651 27.7102 36.7673 28.1667 37.9166 28.1667V28.1667ZM37.9166 32.5C35.618 32.5 33.4136 31.5869 31.7883 29.9616C30.163 28.3363 29.2499 26.1319 29.2499 23.8334C29.2499 21.5348 30.163 19.3304 31.7883 17.7051C33.4136 16.0798 35.618 15.1667 37.9166 15.1667C40.2151 15.1667 42.4195 16.0798 44.0448 17.7051C45.6702 19.3304 46.5833 21.5348 46.5833 23.8334C46.5833 26.1319 45.6702 28.3363 44.0448 29.9616C42.4195 31.5869 40.2151 32.5 37.9166 32.5ZM43.3333 45.5V44.4167C43.3333 42.9801 42.7626 41.6024 41.7467 40.5865C40.7309 39.5707 39.3532 39 37.9166 39C36.48 39 35.1022 39.5707 34.0864 40.5865C33.0706 41.6024 32.4999 42.9801 32.4999 44.4167V45.5H28.1666V44.4167C28.1666 43.1363 28.4188 41.8685 28.9088 40.6855C29.3987 39.5026 30.1169 38.4278 31.0223 37.5224C31.9277 36.617 33.0025 35.8989 34.1854 35.4089C35.3683 34.9189 36.6362 34.6667 37.9166 34.6667C39.197 34.6667 40.4648 34.9189 41.6478 35.4089C42.8307 35.8989 43.9055 36.617 44.8109 37.5224C45.7162 38.4278 46.4344 39.5026 46.9244 40.6855C47.4144 41.8685 47.6666 43.1363 47.6666 44.4167V45.5H43.3333ZM21.6666 45.5V36.8334C21.6666 35.1095 20.9818 33.4562 19.7628 32.2372C18.5438 31.0182 16.8905 30.3334 15.1666 30.3334C13.4427 30.3334 11.7894 31.0182 10.5704 32.2372C9.35141 33.4562 8.66659 35.1095 8.66659 36.8334V45.5H4.33325V36.8334C4.33325 33.9602 5.47462 31.2047 7.50626 29.1731C9.53791 27.1414 12.2934 26 15.1666 26C18.0398 26 20.7953 27.1414 22.8269 29.1731C24.8586 31.2047 25.9999 33.9602 25.9999 36.8334V45.5H21.6666Z" fill="black"/>
</svg>
